<svg width="29" height="29" viewBox="0 0 29 29" fill="none" xmlns="http://www.w3.org/2000/svg">
<rect x="0.5" y="0.5" width="28" height="28" rx="6.06667" fill="url(#paint0_linear_644_3533)"/>
<path d="M20.9639 14.4772C20.5732 14.5889 20.3472 14.9962 20.4589 15.3868C20.6279 15.9774 20.7135 16.5916 20.7135 17.2122C20.7135 18.8921 20.071 20.4959 18.9042 21.7282C18.5228 22.131 17.9549 22.362 17.3458 22.362H10.8391C10.23 22.362 9.66205 22.131 9.28068 21.7282C8.11393 20.4959 7.47135 18.8921 7.47135 17.2122C7.47135 16.5846 7.55894 15.9638 7.7316 15.3673C7.8446 14.977 7.61981 14.5691 7.22954 14.4561C6.83941 14.3431 6.43125 14.5679 6.31833 14.9582C6.10708 15.6877 6 16.4461 6 17.2122C6 19.27 6.78567 21.2331 8.21225 22.7398C8.87021 23.4347 9.82769 23.8333 10.8391 23.8333H17.3459C18.3572 23.8333 19.3147 23.4347 19.9726 22.7398C21.3992 21.2331 22.1849 19.27 22.1849 17.2122C22.1849 16.4546 22.0801 15.7043 21.8735 14.9821C21.7617 14.5915 21.3546 14.3654 20.9639 14.4772Z" fill="white"/>
<path d="M22.9206 5C22.5143 5 22.1849 5.32936 22.1849 5.73568C22.1849 6.72991 21.5239 7.57241 20.6184 7.84759C20.6801 7.64476 20.7135 7.42976 20.7135 7.20703C20.7135 5.99008 19.7235 5 18.5065 5H9.67839C8.46144 5 7.47136 5.99008 7.47136 7.20703C7.47136 7.79031 7.6992 8.32107 8.07006 8.71609C7.50988 9.1515 7.07435 9.74997 6.83839 10.4579L6.35317 11.9136C6.2387 12.2571 6.39121 12.6317 6.71053 12.7984C6.72564 12.8074 6.75893 12.8286 6.78626 12.8459C7.09543 13.0422 7.81956 13.5018 8.79168 13.712C10.0277 13.9794 11.2513 13.7405 12.3303 13.0212C13.4231 12.2927 14.8354 12.2927 15.9282 13.0212C17.0213 13.75 18.2475 13.9827 19.4713 13.7166C20.4396 13.506 21.164 13.0382 21.4367 12.8621C21.4613 12.8462 21.4812 12.8331 21.4963 12.8239C21.8084 12.6539 21.9553 12.284 21.8423 11.9452L21.3465 10.4579C21.2079 10.042 21.0002 9.66416 20.739 9.33468C22.4033 8.9831 23.6563 7.50303 23.6563 5.73568C23.6563 5.32936 23.3269 5 22.9206 5V5ZM9.67839 7.94271C9.27274 7.94271 8.94272 7.61269 8.94272 7.20703C8.94272 6.80138 9.27274 6.47136 9.67839 6.47136H18.5065C18.9122 6.47136 19.2422 6.80138 19.2422 7.20703C19.2422 7.61269 18.9122 7.94271 18.5065 7.94271H9.67839ZM16.7443 11.797C15.1557 10.7379 13.1027 10.7379 11.5141 11.797C10.0403 12.7795 8.66489 12.2299 7.93488 11.8212L8.23422 10.9232C8.53512 10.0205 9.37658 9.41406 10.328 9.41406H17.8569C18.8083 9.41406 19.6498 10.0205 19.9507 10.9232L20.26 11.851C19.0029 12.533 17.8219 12.5154 16.7443 11.797Z" fill="white"/>
<path d="M14.0924 20.8906C13.7052 20.8906 13.3239 20.7887 12.9899 20.5958L12.3505 20.2265C12.0165 20.0338 11.7375 19.7546 11.5439 19.4191C11.3504 19.0841 11.248 18.7029 11.248 18.3171V17.5786C11.248 17.1929 11.3504 16.8118 11.544 16.4765C11.7374 16.1414 12.0163 15.8622 12.3505 15.6692L12.99 15.3C13.3239 15.1071 13.7052 15.0052 14.0924 15.0052C14.4797 15.0052 14.861 15.1072 15.195 15.3L15.8344 15.6692C16.1685 15.8622 16.4474 16.1414 16.6409 16.4766C16.8346 16.8119 16.9369 17.193 16.9369 17.5786V18.3171C16.9369 18.7029 16.8345 19.0841 16.6409 19.4194C16.4473 19.7546 16.1684 20.0339 15.8343 20.2267L15.1949 20.5959C14.861 20.7887 14.4797 20.8906 14.0924 20.8906ZM14.0924 16.4766C13.9613 16.4766 13.8379 16.5094 13.7257 16.5742L13.0862 16.9434C12.9739 17.0082 12.8838 17.0986 12.8183 17.2121C12.7527 17.3258 12.7194 17.4491 12.7194 17.5786V18.3171C12.7194 18.4467 12.7527 18.57 12.8182 18.6835C12.8838 18.7972 12.9739 18.8875 13.0861 18.9523L13.7257 19.3216C13.838 19.3864 13.9613 19.4193 14.0925 19.4193C14.2236 19.4193 14.347 19.3864 14.4592 19.3216L15.0987 18.9523C15.2111 18.8875 15.3011 18.7971 15.3667 18.6836C15.4323 18.57 15.4655 18.4467 15.4655 18.3171V17.5786C15.4655 17.449 15.4323 17.3258 15.3667 17.2123C15.3667 17.2122 15.3667 17.2122 15.3667 17.2121C15.3011 17.0986 15.211 17.0082 15.0987 16.9433L14.4593 16.5742C14.347 16.5094 14.2236 16.4766 14.0924 16.4766Z" fill="white"/>
<defs>
<linearGradient id="paint0_linear_644_3533" x1="14.5" y1="0.5" x2="14.5" y2="28.5" gradientUnits="userSpaceOnUse">
<stop stop-color="#303030"/>
<stop offset="1" stop-color="#121212"/>
</linearGradient>
</defs>
</svg>
