<svg width="18" height="18" viewBox="0 0 18 18" fill="none" xmlns="http://www.w3.org/2000/svg">
<path d="M12 6.855C11.955 5.9625 11.2125 5.25 10.3125 5.25H9.75V3.75C9.75 1.68225 8.06775 0 6 0C3.93225 0 2.25 1.68225 2.25 3.75V5.25H1.6875C0.7575 5.25 0 6.0075 0 6.9375V13.3125C0 14.2425 0.7575 15 1.6875 15H7.0275C6.8475 14.4075 6.75 13.7775 6.75 13.125C6.75 9.99 9.015 7.38 12 6.855ZM3.75 5.25V3.75C3.75 2.5095 4.7595 1.5 6 1.5C7.2405 1.5 8.25 2.5095 8.25 3.75V5.25H3.75Z" fill="#3C3C43" fill-opacity="0.6"/>
<path d="M13.125 8.25C10.437 8.25 8.25 10.437 8.25 13.125C8.25 15.813 10.437 18 13.125 18C15.813 18 18 15.813 18 13.125C18 10.437 15.813 8.25 13.125 8.25ZM14.7803 14.7803C14.634 14.9265 14.442 15 14.25 15C14.058 15 13.866 14.9265 13.7197 14.7803L12.5947 13.6553C12.4537 13.515 12.375 13.3238 12.375 13.125V11.25C12.375 10.836 12.711 10.5 13.125 10.5C13.539 10.5 13.875 10.836 13.875 11.25V12.8145L14.7803 13.7197C15.0735 14.013 15.0735 14.487 14.7803 14.7803Z" fill="#3C3C43" fill-opacity="0.6"/>
</svg>
