<svg width="28" height="29" viewBox="0 0 28 29" fill="none" xmlns="http://www.w3.org/2000/svg">
<rect y="0.5" width="28" height="28" rx="6.06667" fill="url(#paint0_linear_644_3591)"/>
<path d="M8.9252 14.1418C9.75083 14.1411 10.5507 13.8542 11.1885 13.33C11.8263 12.8057 12.2627 12.0766 12.4232 11.2667C12.5837 10.4568 12.4585 9.61638 12.0688 8.88849C11.6792 8.1606 11.0492 7.59032 10.2862 7.27481C9.52328 6.9593 8.67453 6.91806 7.88459 7.15814C7.09464 7.39821 6.41236 7.90474 5.95399 8.59143C5.49561 9.27812 5.2895 10.1025 5.37076 10.9241C5.45202 11.7457 5.81562 12.5137 6.39963 13.0973C6.73109 13.4292 7.12483 13.6922 7.55824 13.8715C7.99165 14.0507 8.4562 14.1426 8.9252 14.1418ZM7.92809 9.57462C8.15878 9.34395 8.46231 9.20041 8.78697 9.16844C9.11162 9.13647 9.43732 9.21807 9.70857 9.39932C9.97981 9.58057 10.1798 9.85026 10.2745 10.1624C10.3692 10.4746 10.3527 10.81 10.2279 11.1114C10.103 11.4128 9.87754 11.6615 9.58983 11.8153C9.30212 11.9691 8.96999 12.0184 8.65003 11.9547C8.33007 11.8911 8.04208 11.7185 7.83512 11.4663C7.62817 11.2141 7.51505 10.898 7.51505 10.5717C7.51454 10.3865 7.55079 10.203 7.62168 10.0318C7.69258 9.86065 7.79673 9.70526 7.92809 9.57462ZM19.0746 14.8602C18.2483 14.8602 17.4475 15.1467 16.8087 15.671C16.1699 16.1952 15.7326 16.9247 15.5714 17.7352C15.4102 18.5457 15.535 19.387 15.9245 20.1157C16.314 20.8445 16.9442 21.4157 17.7077 21.7319C18.4711 22.0482 19.3206 22.0899 20.1114 21.85C20.9022 21.6102 21.5853 21.1035 22.0444 20.4164C22.5035 19.7294 22.7102 18.9043 22.6292 18.082C22.5482 17.2596 22.1845 16.4907 21.6002 15.9064C21.2693 15.5737 20.8757 15.3099 20.4422 15.1303C20.0087 14.9508 19.5439 14.859 19.0746 14.8602ZM20.0717 19.4291C19.8069 19.6919 19.4488 19.8391 19.0757 19.8384C18.7026 19.8377 18.3451 19.6892 18.0813 19.4254C17.8175 19.1616 17.6689 18.804 17.6682 18.4309C17.6675 18.0578 17.8147 17.6997 18.0775 17.4349C18.2083 17.3032 18.3638 17.1985 18.5351 17.127C18.7064 17.0555 18.8901 17.0185 19.0757 17.0182C19.2613 17.0178 19.4452 17.0541 19.6168 17.125C19.7883 17.1959 19.9442 17.2999 20.0755 17.4312C20.2067 17.5624 20.3108 17.7183 20.3816 17.8899C20.4525 18.0614 20.4888 18.2453 20.4885 18.4309C20.4881 18.6166 20.4511 18.8003 20.3796 18.9716C20.3081 19.1429 20.2034 19.2984 20.0717 19.4291L20.0717 19.4291ZM21.1852 7.31655C21.2856 7.41691 21.3652 7.53606 21.4195 7.66719C21.4738 7.79832 21.5018 7.93886 21.5018 8.0808C21.5018 8.22273 21.4738 8.36328 21.4195 8.49441C21.3652 8.62554 21.2856 8.74468 21.1852 8.84505L8.34312 21.6872C8.14016 21.8886 7.86567 22.0013 7.57974 22.0008C7.29381 22.0002 7.01975 21.8864 6.81757 21.6842C6.61539 21.482 6.50157 21.208 6.50102 20.922C6.50047 20.6361 6.61325 20.3616 6.81466 20.1587L19.6567 7.31655C19.8594 7.11387 20.1343 7 20.421 7C20.7076 7 20.9825 7.11387 21.1852 7.31655Z" fill="white"/>
<defs>
<linearGradient id="paint0_linear_644_3591" x1="14" y1="0.5" x2="14" y2="28.5" gradientUnits="userSpaceOnUse">
<stop stop-color="#303030"/>
<stop offset="1" stop-color="#121212"/>
</linearGradient>
</defs>
</svg>
