<svg width="29" height="28" viewBox="0 0 29 28" fill="none" xmlns="http://www.w3.org/2000/svg">
<rect x="0.666672" width="28" height="28" rx="6.06667" fill="url(#paint0_linear_648_2953)"/>
<path d="M22.0333 9.93097C21.491 10.1718 20.9085 10.3339 20.2971 10.407C20.9215 10.033 21.4004 9.4408 21.6259 8.73473C21.0422 9.08097 20.3951 9.33257 19.706 9.46857C19.1547 8.88093 18.3693 8.51373 17.5 8.51373C15.8306 8.51373 14.4774 9.8675 14.4774 11.5363C14.4774 11.7732 14.5046 12.0044 14.5556 12.2248C12.0436 12.099 9.81657 10.8954 8.32511 9.06623C8.06557 9.51277 7.91654 10.0318 7.91654 10.5866C7.91654 11.6349 8.44977 12.5603 9.26067 13.102C8.76541 13.0862 8.29904 12.9502 7.89161 12.7241C7.89161 12.7371 7.89161 12.749 7.89161 12.762C7.89161 14.2269 8.93314 15.4486 10.3164 15.7257C10.0631 15.7948 9.79561 15.8317 9.51964 15.8317C9.32527 15.8317 9.13544 15.8124 8.95127 15.7778C9.33604 16.9786 10.4524 17.853 11.775 17.8773C10.7408 18.6882 9.43747 19.1716 8.02081 19.1716C7.77714 19.1716 7.53631 19.1574 7.29944 19.1291C8.63734 19.9865 10.2257 20.4868 11.9331 20.4868C17.4932 20.4868 20.5328 15.881 20.5328 11.8865C20.5328 11.7556 20.53 11.6253 20.5243 11.4955C21.1153 11.0688 21.6282 10.5367 22.0333 9.93097Z" fill="white"/>
<defs>
<linearGradient id="paint0_linear_648_2953" x1="14.6667" y1="0" x2="14.6667" y2="28" gradientUnits="userSpaceOnUse">
<stop stop-color="#5BAAFF"/>
<stop offset="1" stop-color="#007AFF"/>
</linearGradient>
</defs>
</svg>
