<svg width="28" height="28" viewBox="0 0 28 28" fill="none" xmlns="http://www.w3.org/2000/svg">
<rect width="28" height="28" rx="6.06667" fill="url(#paint0_linear_648_2920)"/>
<path d="M6.68625 13.856C11.3992 11.7826 17.4983 9.25475 18.3401 8.90488C20.5485 7.98913 21.2261 8.16463 20.8883 10.1926C20.6456 11.6503 19.9455 16.4761 19.3875 19.4799C19.0564 21.2611 18.3135 21.4722 17.1454 20.7016C16.5836 20.3307 13.7482 18.4558 13.1329 18.0155C12.5711 17.6143 11.7964 17.1316 12.768 16.181C13.1137 15.8424 15.3802 13.6783 17.1461 11.9938C17.3775 11.7725 17.0869 11.4091 16.8199 11.5865C14.4397 13.1649 11.1397 15.3556 10.7197 15.641C10.0852 16.0719 9.47587 16.2695 8.382 15.9553C7.5555 15.7179 6.74812 15.4348 6.43387 15.3268C5.22375 14.9113 5.511 14.3731 6.68625 13.856Z" fill="white"/>
<defs>
<linearGradient id="paint0_linear_648_2920" x1="14" y1="0" x2="14" y2="28" gradientUnits="userSpaceOnUse">
<stop stop-color="#303030"/>
<stop offset="1" stop-color="#121212"/>
</linearGradient>
</defs>
</svg>
