<svg width="29" height="28" viewBox="0 0 29 28" fill="none" xmlns="http://www.w3.org/2000/svg">
<rect x="0.333344" width="28" height="28" rx="6.06667" fill="url(#paint0_linear_648_2958)"/>
<g clip-path="url(#clip0_648_2958)">
<path d="M9.65862 13.6179C9.65861 13.5285 9.67624 13.44 9.71051 13.3575C9.74477 13.275 9.795 13.2001 9.8583 13.137C9.9216 13.074 9.99673 13.0241 10.0794 12.9902C10.162 12.9563 10.2505 12.939 10.3399 12.9395L11.4693 12.9432C11.6493 12.9432 11.822 13.0147 11.9494 13.1421C12.0767 13.2695 12.1483 13.4422 12.1483 13.6224V17.8946C12.2755 17.8569 12.4387 17.8167 12.6174 17.7747C12.7415 17.7455 12.8521 17.6752 12.9313 17.5752C13.0105 17.4753 13.0536 17.3515 13.0536 17.2239V11.9246C13.0536 11.8354 13.0712 11.747 13.1053 11.6646C13.1394 11.5822 13.1894 11.5073 13.2525 11.4442C13.3155 11.3811 13.3904 11.3311 13.4728 11.2969C13.5552 11.2628 13.6435 11.2452 13.7326 11.2452H14.8643C15.0444 11.2452 15.2171 11.3168 15.3444 11.4442C15.4717 11.5716 15.5433 11.7443 15.5433 11.9244V16.8431C15.5433 16.8431 15.8265 16.7283 16.1026 16.6118C16.2051 16.5684 16.2926 16.4958 16.3541 16.403C16.4156 16.3102 16.4485 16.2014 16.4486 16.09V10.2262C16.4486 10.137 16.4661 10.0487 16.5002 9.96628C16.5344 9.88388 16.5844 9.809 16.6474 9.74592C16.7105 9.68285 16.7853 9.63282 16.8677 9.59868C16.9501 9.56455 17.0384 9.54698 17.1275 9.54698H18.2592C18.4392 9.54698 18.612 9.61854 18.7393 9.74592C18.8666 9.8733 18.9382 10.0461 18.9382 10.2262V15.0547C19.9193 14.3435 20.9137 13.4879 21.7027 12.4592C21.8172 12.3099 21.893 12.1346 21.9232 11.9488C21.9535 11.7631 21.9373 11.5728 21.8762 11.3948C21.3423 9.83831 20.3408 8.48476 19.0087 7.51924C17.6766 6.55372 16.0789 6.02337 14.4341 6.00069C9.99864 5.94109 6.33298 9.56305 6.33341 14.0006C6.32906 15.4048 6.69542 16.7853 7.39545 18.0024C7.49199 18.1688 7.63401 18.3043 7.80484 18.3928C7.97567 18.4814 8.16821 18.5193 8.35983 18.5021C8.57393 18.4833 8.84047 18.4566 9.15734 18.4194C9.29526 18.4037 9.42259 18.3378 9.51508 18.2343C9.60757 18.1308 9.65875 17.9968 9.65889 17.8579V13.6179" fill="white"/>
<path d="M9.634 20.4695C10.8269 21.3376 12.2365 21.8587 13.707 21.9751C15.1775 22.0914 16.6516 21.7986 17.966 21.129C19.2805 20.4594 20.3842 19.4391 21.155 18.1809C21.9258 16.9227 22.3336 15.4758 22.3333 14.0002C22.3333 13.816 22.3248 13.6339 22.3125 13.4527C19.391 17.8113 13.9967 19.849 9.63394 20.4697" fill="white"/>
</g>
<defs>
<linearGradient id="paint0_linear_648_2958" x1="14.3333" y1="0" x2="14.3333" y2="28" gradientUnits="userSpaceOnUse">
<stop stop-color="#FFA260"/>
<stop offset="1" stop-color="#FF6B00"/>
</linearGradient>
<clipPath id="clip0_648_2958">
<rect width="16" height="16" fill="white" transform="translate(6.33334 6)"/>
</clipPath>
</defs>
</svg>
