<svg width="29" height="29" viewBox="0 0 29 29" fill="none" xmlns="http://www.w3.org/2000/svg">
<rect x="0.5" y="0.5" width="28" height="28" rx="6.06667" fill="url(#paint0_linear_644_3645)"/>
<path d="M19.5 20.75H18.875V18.7044C18.875 17.6869 18.4419 16.7131 17.6856 16.0331L16.6275 15.0813C16.4606 14.9306 16.3687 14.7244 16.3687 14.5C16.3687 14.2756 16.4606 14.0694 16.6275 13.9194L17.6856 12.9675C18.4419 12.2863 18.875 11.3131 18.875 10.2956V8.25H19.5C19.8456 8.25 20.125 7.97 20.125 7.625C20.125 7.28 19.8456 7 19.5 7H9.5C9.15438 7 8.875 7.28 8.875 7.625C8.875 7.97 9.15438 8.25 9.5 8.25H10.125V10.2956C10.125 11.3131 10.5581 12.2869 11.3144 12.9669L12.3725 13.9187C12.5394 14.0694 12.6313 14.2756 12.6313 14.5C12.6313 14.7244 12.5394 14.9306 12.3725 15.0806L11.3144 16.0325C10.5581 16.7137 10.125 17.6869 10.125 18.7044V20.75H9.5C9.15438 20.75 8.875 21.03 8.875 21.375C8.875 21.72 9.15438 22 9.5 22H19.5C19.8456 22 20.125 21.72 20.125 21.375C20.125 21.03 19.8456 20.75 19.5 20.75ZM12 18.7681C12 18.3088 12.1787 17.8775 12.5037 17.5525L14.1688 15.8875C14.3519 15.7044 14.6488 15.7044 14.8319 15.8875L16.4969 17.5525C16.8219 17.8775 17.0006 18.3088 17.0006 18.7681V20.75H12V18.7681Z" fill="white"/>
<defs>
<linearGradient id="paint0_linear_644_3645" x1="14.5" y1="0.5" x2="14.5" y2="28.5" gradientUnits="userSpaceOnUse">
<stop stop-color="#303030"/>
<stop offset="1" stop-color="#121212"/>
</linearGradient>
</defs>
</svg>
