<svg width="28" height="29" viewBox="0 0 28 29" fill="none" xmlns="http://www.w3.org/2000/svg">
<rect y="0.5" width="28" height="28" rx="6.06667" fill="url(#paint0_linear_644_3719)"/>
<path d="M22.25 19.25C22.25 19.4489 22.171 19.6397 22.0303 19.7803C21.8897 19.921 21.6989 20 21.5 20H12.5C12.3011 20 12.1103 19.921 11.9697 19.7803C11.829 19.6397 11.75 19.4489 11.75 19.25C11.75 18.0565 12.2241 16.9119 13.068 16.068C13.9119 15.2241 15.0565 14.75 16.25 14.75H17.75C18.9435 14.75 20.0881 15.2241 20.932 16.068C21.7759 16.9119 22.25 18.0565 22.25 19.25ZM17 8C16.4067 8 15.8266 8.17595 15.3333 8.50559C14.8399 8.83524 14.4554 9.30377 14.2284 9.85195C14.0013 10.4001 13.9419 11.0033 14.0576 11.5853C14.1734 12.1672 14.4591 12.7018 14.8787 13.1213C15.2982 13.5409 15.8328 13.8266 16.4147 13.9424C16.9967 14.0581 17.5999 13.9987 18.1481 13.7716C18.6962 13.5446 19.1648 13.1601 19.4944 12.6667C19.8241 12.1734 20 11.5933 20 11C20 10.2044 19.6839 9.44129 19.1213 8.87868C18.5587 8.31607 17.7956 8 17 8ZM10.25 8C9.65666 8 9.07664 8.17595 8.58329 8.50559C8.08994 8.83524 7.70542 9.30377 7.47836 9.85195C7.2513 10.4001 7.19189 11.0033 7.30764 11.5853C7.4234 12.1672 7.70912 12.7018 8.12868 13.1213C8.54824 13.5409 9.08279 13.8266 9.66473 13.9424C10.2467 14.0581 10.8499 13.9987 11.3981 13.7716C11.9462 13.5446 12.4148 13.1601 12.7444 12.6667C13.0741 12.1734 13.25 11.5933 13.25 11C13.25 10.2044 12.9339 9.44129 12.3713 8.87868C11.8087 8.31607 11.0456 8 10.25 8ZM10.25 19.25C10.2489 18.4622 10.4041 17.682 10.7066 16.9546C11.0092 16.2273 11.453 15.5671 12.0125 15.0125C11.5547 14.8396 11.0694 14.7507 10.58 14.75H9.92C8.81466 14.752 7.75515 15.192 6.97355 15.9736C6.19196 16.7552 5.75198 17.8147 5.75 18.92V19.25C5.75 19.4489 5.82902 19.6397 5.96967 19.7803C6.11032 19.921 6.30109 20 6.5 20H10.385C10.2977 19.7595 10.252 19.5059 10.25 19.25Z" fill="white"/>
<defs>
<linearGradient id="paint0_linear_644_3719" x1="14" y1="0.5" x2="14" y2="28.5" gradientUnits="userSpaceOnUse">
<stop stop-color="#303030"/>
<stop offset="1" stop-color="#121212"/>
</linearGradient>
</defs>
</svg>
