<svg width="246" height="83" viewBox="0 0 246 83" fill="none" xmlns="http://www.w3.org/2000/svg">
<g clip-path="url(#clip0_673_4235)">
<path d="M111.008 27.856L111.152 27.892C111.752 28.252 112.268 28.66 112.7 29.116C113.156 29.548 113.564 30.016 113.924 30.52C114.308 31 114.608 31.528 114.824 32.104C115.736 34.312 114.944 36.784 112.448 39.52C111.392 40.672 110.204 41.656 108.884 42.472C109.22 42.712 109.532 42.892 109.82 43.012C110.132 43.108 110.564 43.312 111.116 43.624C111.668 43.912 112.028 44.476 112.196 45.316C112.364 46.132 112.316 47.056 112.052 48.088C111.812 49.12 111.356 50.188 110.684 51.292C110.036 52.372 109.184 53.344 108.128 54.208C105.728 56.2 102.944 57.04 99.776 56.728C99.32 56.728 99.032 56.692 98.912 56.62C98.792 56.548 98.696 56.488 98.624 56.44C98.552 56.392 98.396 56.356 98.156 56.332C97.556 56.812 96.872 57.112 96.104 57.232C95.336 57.352 94.604 57.292 93.908 57.052C93.236 56.812 92.66 56.404 92.18 55.828C91.724 55.252 91.496 54.496 91.496 53.56C91.568 52.936 91.688 52.444 91.856 52.084C91.784 51.868 91.748 51.604 91.748 51.292C92.564 46.948 93.332 43.624 94.052 41.32C95.516 36.736 97.1 33.28 98.804 30.952C100.196 28.984 102.128 27.712 104.6 27.136C106.976 26.584 109.112 26.824 111.008 27.856ZM99.812 52.984C100.1 52.912 100.34 52.9 100.532 52.948C100.748 52.972 101 52.96 101.288 52.912C101.984 52.84 102.92 52.408 104.096 51.616C104.84 50.872 105.236 50.14 105.284 49.42C105.332 48.7 105.224 48.244 104.96 48.052C104.696 47.836 104.336 47.728 103.88 47.728C103.448 47.728 102.956 47.8 102.404 47.944C101.876 48.064 101.36 48.136 100.856 48.16V48.232C100.736 48.712 100.616 49.132 100.496 49.492C100.376 49.852 100.268 50.2 100.172 50.536C99.956 51.328 99.788 52.144 99.668 52.984H99.812ZM106.508 34.264C105.788 34.168 105.008 34.732 104.168 35.956C103.64 36.724 103.232 37.888 102.944 39.448C103.448 39.232 103.94 39.052 104.42 38.908C104.924 38.74 105.392 38.56 105.824 38.368C106.88 37.912 107.636 37.36 108.092 36.712C108.62 36.088 108.788 35.56 108.596 35.128C108.308 34.744 107.84 34.396 107.192 34.084C107 34.252 106.772 34.312 106.508 34.264ZM105.968 34.12H106.076H105.968ZM125.623 49.672C125.167 49.888 124.723 50.056 124.291 50.176C123.859 50.296 123.355 50.416 122.779 50.536C121.267 50.848 120.175 51.028 119.503 51.076C119.575 51.316 119.935 51.604 120.583 51.94C121.015 52.012 121.483 51.952 121.987 51.76C122.515 51.544 123.055 51.352 123.607 51.184C124.183 50.992 124.735 50.884 125.263 50.86C125.815 50.836 126.331 51.04 126.811 51.472C127.003 51.904 127.159 52.156 127.279 52.228C127.399 52.3 127.507 52.336 127.603 52.336C127.699 52.336 127.807 52.372 127.927 52.444C128.047 52.516 128.215 52.792 128.431 53.272C128.671 53.752 128.611 54.208 128.251 54.64C127.915 55.072 127.387 55.444 126.667 55.756C125.947 56.068 125.107 56.32 124.147 56.512C123.187 56.704 122.227 56.836 121.267 56.908C119.107 57.076 117.463 56.908 116.335 56.404C114.703 55.852 113.647 54.76 113.167 53.128C112.543 50.968 112.891 48.448 114.211 45.568C114.811 44.224 115.759 42.784 117.055 41.248C118.183 39.904 119.443 38.932 120.835 38.332C122.443 37.636 124.123 37.312 125.875 37.36C127.747 37.408 129.043 38.224 129.763 39.808C130.123 40.648 130.195 41.824 129.979 43.336C129.595 45.304 129.091 46.696 128.467 47.512C127.843 48.304 126.895 49.024 125.623 49.672ZM123.535 43.984C122.263 43.72 121.267 44.44 120.547 46.144C120.331 46.6 120.163 47.08 120.043 47.584C120.859 47.68 121.723 47.224 122.635 46.216C122.971 45.808 123.223 45.4 123.391 44.992C123.559 44.56 123.607 44.224 123.535 43.984ZM142.99 49.672C142.534 49.888 142.09 50.056 141.658 50.176C141.226 50.296 140.722 50.416 140.146 50.536C138.634 50.848 137.542 51.028 136.87 51.076C136.942 51.316 137.302 51.604 137.95 51.94C138.382 52.012 138.85 51.952 139.354 51.76C139.882 51.544 140.422 51.352 140.974 51.184C141.55 50.992 142.102 50.884 142.63 50.86C143.182 50.836 143.698 51.04 144.178 51.472C144.37 51.904 144.526 52.156 144.646 52.228C144.766 52.3 144.874 52.336 144.97 52.336C145.066 52.336 145.174 52.372 145.294 52.444C145.414 52.516 145.582 52.792 145.798 53.272C146.038 53.752 145.978 54.208 145.618 54.64C145.282 55.072 144.754 55.444 144.034 55.756C143.314 56.068 142.474 56.32 141.514 56.512C140.554 56.704 139.594 56.836 138.634 56.908C136.474 57.076 134.83 56.908 133.702 56.404C132.07 55.852 131.014 54.76 130.534 53.128C129.91 50.968 130.258 48.448 131.578 45.568C132.178 44.224 133.126 42.784 134.422 41.248C135.55 39.904 136.81 38.932 138.202 38.332C139.81 37.636 141.49 37.312 143.242 37.36C145.114 37.408 146.41 38.224 147.13 39.808C147.49 40.648 147.562 41.824 147.346 43.336C146.962 45.304 146.458 46.696 145.834 47.512C145.21 48.304 144.262 49.024 142.99 49.672ZM140.902 43.984C139.63 43.72 138.634 44.44 137.914 46.144C137.698 46.6 137.53 47.08 137.41 47.584C138.226 47.68 139.09 47.224 140.002 46.216C140.338 45.808 140.59 45.4 140.758 44.992C140.926 44.56 140.974 44.224 140.902 43.984ZM156.973 28.864L157.009 29.404L156.973 29.584L156.829 29.764C156.733 30.028 156.613 30.292 156.469 30.556C156.325 30.82 156.193 31.072 156.073 31.312C156.049 31.432 156.013 31.588 155.965 31.78C155.437 32.596 154.657 33.664 153.625 34.984L153.121 35.668C152.953 35.86 152.809 36.052 152.689 36.244C152.569 36.412 152.401 36.628 152.185 36.892C151.969 37.132 151.633 37.372 151.177 37.612C150.745 37.852 150.337 37.972 149.953 37.972C149.593 37.948 149.293 37.78 149.053 37.468C148.837 37.132 148.789 36.604 148.909 35.884H148.873C148.897 35.86 148.909 35.824 148.909 35.776V35.74C149.293 33.652 149.509 31.72 149.557 29.944C149.509 30.136 149.485 30.304 149.485 30.448C149.485 30.568 149.473 30.7 149.449 30.844C149.401 30.964 149.365 30.94 149.341 30.772C149.317 30.58 149.281 30.448 149.233 30.376L149.521 29.404L149.485 29.224C149.605 28.936 149.737 28.72 149.881 28.576C150.337 27.64 150.949 26.92 151.717 26.416C152.485 25.888 153.241 25.612 153.985 25.588C154.729 25.564 155.389 25.804 155.965 26.308C156.541 26.812 156.865 27.604 156.937 28.684C156.985 28.732 156.997 28.792 156.973 28.864ZM162.418 39.412C164.026 38.764 165.106 38.752 165.658 39.376C165.946 39.712 166.09 40.18 166.09 40.78V40.96C166.978 39.928 168.526 39.064 170.734 38.368C173.062 37.648 174.982 37.444 176.494 37.756C178.462 38.164 179.566 39.448 179.806 41.608C179.998 43.432 179.578 45.748 178.546 48.556C178.21 49.276 177.946 49.864 177.754 50.32C177.586 50.752 177.43 51.148 177.286 51.508C176.974 52.18 176.482 52.984 175.81 53.92C175.426 54.64 174.826 55.192 174.01 55.576C173.218 55.96 172.426 56.176 171.634 56.224C170.866 56.296 170.23 56.176 169.726 55.864C169.222 55.576 169.078 55.108 169.294 54.46C169.846 52.972 170.302 51.616 170.662 50.392C171.022 49.168 171.394 48.124 171.778 47.26C172.138 46.036 172.186 45.268 171.922 44.956C171.706 44.716 171.334 44.752 170.806 45.064C170.35 45.352 170.026 45.688 169.834 46.072C169.402 46.384 168.586 47.632 167.386 49.816C167.05 50.416 166.714 51.016 166.378 51.616C166.066 52.192 165.766 52.732 165.478 53.236C165.214 53.74 164.974 54.16 164.758 54.496C164.566 54.832 164.386 55.048 164.218 55.144C164.074 55.264 163.942 55.336 163.822 55.36C163.726 55.408 163.642 55.456 163.57 55.504C163.498 55.552 163.438 55.708 163.39 55.972C163.294 56.524 162.718 56.932 161.662 57.196C159.958 57.628 158.422 57.556 157.054 56.98C156.598 56.788 156.238 56.524 155.974 56.188C155.422 55.084 156.37 51.328 158.818 44.92C159.682 42.664 160.246 41.32 160.51 40.888C161.11 39.976 161.494 39.46 161.662 39.34C161.854 39.22 162.106 39.244 162.418 39.412ZM189.071 28.864L189.107 29.404L189.071 29.584L188.927 29.764C188.831 30.028 188.711 30.292 188.567 30.556C188.423 30.82 188.291 31.072 188.171 31.312C188.147 31.432 188.111 31.588 188.063 31.78C187.535 32.596 186.755 33.664 185.723 34.984L185.219 35.668C185.051 35.86 184.907 36.052 184.787 36.244C184.667 36.412 184.499 36.628 184.283 36.892C184.067 37.132 183.731 37.372 183.275 37.612C182.843 37.852 182.435 37.972 182.051 37.972C181.691 37.948 181.391 37.78 181.151 37.468C180.935 37.132 180.887 36.604 181.007 35.884H180.971C180.995 35.86 181.007 35.824 181.007 35.776V35.74C181.391 33.652 181.607 31.72 181.655 29.944C181.607 30.136 181.583 30.304 181.583 30.448C181.583 30.568 181.571 30.7 181.547 30.844C181.499 30.964 181.463 30.94 181.439 30.772C181.415 30.58 181.379 30.448 181.331 30.376L181.619 29.404L181.583 29.224C181.703 28.936 181.835 28.72 181.979 28.576C182.435 27.64 183.047 26.92 183.815 26.416C184.583 25.888 185.339 25.612 186.083 25.588C186.827 25.564 187.487 25.804 188.063 26.308C188.639 26.812 188.963 27.604 189.035 28.684C189.083 28.732 189.095 28.792 189.071 28.864ZM207.512 27.856L207.656 27.892C208.256 28.252 208.772 28.66 209.204 29.116C209.66 29.548 210.068 30.016 210.428 30.52C210.812 31 211.112 31.528 211.328 32.104C212.24 34.312 211.448 36.784 208.952 39.52C207.896 40.672 206.708 41.656 205.388 42.472C205.724 42.712 206.036 42.892 206.324 43.012C206.636 43.108 207.068 43.312 207.62 43.624C208.172 43.912 208.532 44.476 208.7 45.316C208.868 46.132 208.82 47.056 208.556 48.088C208.316 49.12 207.86 50.188 207.188 51.292C206.54 52.372 205.688 53.344 204.632 54.208C202.232 56.2 199.448 57.04 196.28 56.728C195.824 56.728 195.536 56.692 195.416 56.62C195.296 56.548 195.2 56.488 195.128 56.44C195.056 56.392 194.9 56.356 194.66 56.332C194.06 56.812 193.376 57.112 192.608 57.232C191.84 57.352 191.108 57.292 190.412 57.052C189.74 56.812 189.164 56.404 188.684 55.828C188.228 55.252 188 54.496 188 53.56C188.072 52.936 188.192 52.444 188.36 52.084C188.288 51.868 188.252 51.604 188.252 51.292C189.068 46.948 189.836 43.624 190.556 41.32C192.02 36.736 193.604 33.28 195.308 30.952C196.7 28.984 198.632 27.712 201.104 27.136C203.48 26.584 205.616 26.824 207.512 27.856ZM196.316 52.984C196.604 52.912 196.844 52.9 197.036 52.948C197.252 52.972 197.504 52.96 197.792 52.912C198.488 52.84 199.424 52.408 200.6 51.616C201.344 50.872 201.74 50.14 201.788 49.42C201.836 48.7 201.728 48.244 201.464 48.052C201.2 47.836 200.84 47.728 200.384 47.728C199.952 47.728 199.46 47.8 198.908 47.944C198.38 48.064 197.864 48.136 197.36 48.16V48.232C197.24 48.712 197.12 49.132 197 49.492C196.88 49.852 196.772 50.2 196.676 50.536C196.46 51.328 196.292 52.144 196.172 52.984H196.316ZM203.012 34.264C202.292 34.168 201.512 34.732 200.672 35.956C200.144 36.724 199.736 37.888 199.448 39.448C199.952 39.232 200.444 39.052 200.924 38.908C201.428 38.74 201.896 38.56 202.328 38.368C203.384 37.912 204.14 37.36 204.596 36.712C205.124 36.088 205.292 35.56 205.1 35.128C204.812 34.744 204.344 34.396 203.696 34.084C203.504 34.252 203.276 34.312 203.012 34.264ZM202.472 34.12H202.58H202.472ZM222.127 49.672C221.671 49.888 221.227 50.056 220.795 50.176C220.363 50.296 219.859 50.416 219.283 50.536C217.771 50.848 216.679 51.028 216.007 51.076C216.079 51.316 216.439 51.604 217.087 51.94C217.519 52.012 217.987 51.952 218.491 51.76C219.019 51.544 219.559 51.352 220.111 51.184C220.687 50.992 221.239 50.884 221.767 50.86C222.319 50.836 222.835 51.04 223.315 51.472C223.507 51.904 223.663 52.156 223.783 52.228C223.903 52.3 224.011 52.336 224.107 52.336C224.203 52.336 224.311 52.372 224.431 52.444C224.551 52.516 224.719 52.792 224.935 53.272C225.175 53.752 225.115 54.208 224.755 54.64C224.419 55.072 223.891 55.444 223.171 55.756C222.451 56.068 221.611 56.32 220.651 56.512C219.691 56.704 218.731 56.836 217.771 56.908C215.611 57.076 213.967 56.908 212.839 56.404C211.207 55.852 210.151 54.76 209.671 53.128C209.046 50.968 209.394 48.448 210.715 45.568C211.315 44.224 212.263 42.784 213.559 41.248C214.687 39.904 215.947 38.932 217.339 38.332C218.947 37.636 220.627 37.312 222.379 37.36C224.251 37.408 225.547 38.224 226.267 39.808C226.627 40.648 226.699 41.824 226.483 43.336C226.099 45.304 225.595 46.696 224.971 47.512C224.347 48.304 223.399 49.024 222.127 49.672ZM220.039 43.984C218.767 43.72 217.771 44.44 217.051 46.144C216.835 46.6 216.667 47.08 216.547 47.584C217.363 47.68 218.227 47.224 219.139 46.216C219.475 45.808 219.727 45.4 219.895 44.992C220.062 44.56 220.111 44.224 220.039 43.984ZM239.494 49.672C239.038 49.888 238.594 50.056 238.162 50.176C237.73 50.296 237.226 50.416 236.65 50.536C235.138 50.848 234.046 51.028 233.374 51.076C233.446 51.316 233.806 51.604 234.454 51.94C234.886 52.012 235.354 51.952 235.858 51.76C236.386 51.544 236.926 51.352 237.478 51.184C238.054 50.992 238.606 50.884 239.134 50.86C239.686 50.836 240.202 51.04 240.682 51.472C240.874 51.904 241.03 52.156 241.15 52.228C241.27 52.3 241.378 52.336 241.474 52.336C241.57 52.336 241.678 52.372 241.798 52.444C241.918 52.516 242.086 52.792 242.302 53.272C242.542 53.752 242.482 54.208 242.122 54.64C241.786 55.072 241.258 55.444 240.538 55.756C239.818 56.068 238.978 56.32 238.018 56.512C237.058 56.704 236.098 56.836 235.138 56.908C232.978 57.076 231.334 56.908 230.206 56.404C228.574 55.852 227.518 54.76 227.038 53.128C226.414 50.968 226.762 48.448 228.082 45.568C228.682 44.224 229.63 42.784 230.926 41.248C232.054 39.904 233.314 38.932 234.706 38.332C236.314 37.636 237.994 37.312 239.746 37.36C241.618 37.408 242.914 38.224 243.634 39.808C243.994 40.648 244.066 41.824 243.85 43.336C243.466 45.304 242.962 46.696 242.338 47.512C241.714 48.304 240.766 49.024 239.494 49.672ZM237.406 43.984C236.134 43.72 235.138 44.44 234.418 46.144C234.202 46.6 234.034 47.08 233.914 47.584C234.73 47.68 235.594 47.224 236.506 46.216C236.842 45.808 237.094 45.4 237.262 44.992C237.43 44.56 237.478 44.224 237.406 43.984Z" fill="#302100"/>
<path d="M62.4096 27.4027C62.4096 27.4027 72.0422 20.1769 77.9801 21.5881" stroke="#563D05" stroke-width="4" stroke-linecap="round"/>
<path d="M57.0942 21.4238C57.0942 21.4238 65.3979 12.7033 64.6915 6.64108" stroke="#563D05" stroke-width="4" stroke-linecap="round"/>
<circle cx="42.2306" cy="39.3215" r="27.5" transform="rotate(48.3614 42.2306 39.3215)" fill="#FFD850"/>
<path fill-rule="evenodd" clip-rule="evenodd" d="M19.3928 45.992C29.484 57.3426 46.8661 58.3636 58.2167 48.2723C64.3116 42.8537 67.4281 35.3329 67.4451 27.7725C72.7856 38.5983 70.5001 52.0705 61.0414 60.4798C49.6907 70.571 32.3086 69.5501 22.2174 58.1994C17.5448 52.9437 15.2546 46.3948 15.2693 39.8753C16.3375 42.0406 17.7108 44.1001 19.3928 45.992Z" fill="#CDA71F"/>
<path fill-rule="evenodd" clip-rule="evenodd" d="M16.1924 30.3518C17.5245 26.464 19.746 22.8272 22.8378 19.766L59.328 60.8102C55.9259 63.5223 52.054 65.3028 48.037 66.1706L16.1924 30.3518Z" fill="#302100"/>
<circle cx="42.2306" cy="39.3215" r="27.5" transform="rotate(48.3614 42.2306 39.3215)" stroke="#563D05" stroke-width="4"/>
<path fill-rule="evenodd" clip-rule="evenodd" d="M40.5144 66.7395C33.5155 66.3088 26.6789 63.2178 21.6518 57.5633C16.6246 51.9087 14.3552 44.7573 14.7468 37.7562L40.5144 66.7395Z" fill="#302100"/>
<path fill-rule="evenodd" clip-rule="evenodd" d="M50.3405 40.547C48.4345 39.4301 45.9839 40.0698 44.8671 41.9758L37.8391 53.9693C32.8407 62.4991 34.1289 72.5431 40.7162 76.4032C47.3035 80.2633 56.6956 76.4777 61.6939 67.9479C66.6923 59.4181 65.4041 49.3741 58.8168 45.514L50.3405 40.547Z" fill="white"/>
<path fill-rule="evenodd" clip-rule="evenodd" d="M35.037 67.8786C35.7563 68.6549 36.5854 69.3284 37.5216 69.877C44.109 73.737 53.501 69.9515 58.4994 61.4217C61.1868 56.8355 62.0569 51.8116 61.2632 47.5464C65.605 52.2324 65.9437 60.6644 61.6557 67.982C56.6573 76.5118 47.2653 80.2974 40.6779 76.4373C37.6324 74.6526 35.7195 71.5461 35.037 67.8786Z" fill="#ECECEC"/>
<path d="M44.8671 41.9758L43.1415 40.9647L44.8671 41.9758ZM37.8391 53.9693L39.5646 54.9805L37.8391 53.9693ZM46.5926 42.987C47.1511 42.034 48.3763 41.7141 49.3293 42.2726L51.3516 38.8215C48.4926 37.1461 44.8168 38.1057 43.1415 40.9647L46.5926 42.987ZM39.5646 54.9805L46.5926 42.987L43.1415 40.9647L36.1135 52.9582L39.5646 54.9805ZM41.7274 74.6777C36.4812 71.6035 34.8662 62.9985 39.5646 54.9805L36.1135 52.9582C30.8153 61.9998 31.7766 73.4828 39.705 78.1288L41.7274 74.6777ZM59.9684 66.9368C55.2699 74.9548 46.9735 77.7518 41.7274 74.6777L39.705 78.1288C47.6335 82.7748 58.1213 78.0007 63.4195 68.9591L59.9684 66.9368ZM57.8056 47.2396C63.0518 50.3138 64.6668 58.9187 59.9684 66.9368L63.4195 68.9591C68.7177 59.9175 67.7564 48.4344 59.828 43.7885L57.8056 47.2396ZM49.3293 42.2726L57.8056 47.2396L59.828 43.7885L51.3516 38.8215L49.3293 42.2726Z" fill="#563D05"/>
<path fill-rule="evenodd" clip-rule="evenodd" d="M41.5344 30.642C42.4205 32.6657 41.4983 35.0245 39.4747 35.9105L26.741 41.4862C17.6847 45.4516 7.86051 42.9965 4.79812 36.0026C1.73573 29.0087 6.59475 20.1244 15.6511 16.1589C24.7074 12.1935 34.5315 14.6486 37.5939 21.6425L41.5344 30.642Z" fill="white"/>
<path fill-rule="evenodd" clip-rule="evenodd" d="M12.5993 42.6407C11.9126 41.8355 11.3408 40.9332 10.9056 39.9392C7.84317 32.9453 12.7022 24.061 21.7585 20.0956C26.6278 17.9635 31.719 17.6875 35.8618 18.9751C31.7163 14.1145 23.382 12.7911 15.6128 16.193C6.55649 20.1584 1.69746 29.0427 4.75985 36.0366C6.1757 39.2702 9.0369 41.5335 12.5993 42.6407Z" fill="#ECECEC"/>
<path d="M39.4747 35.9105L38.6725 34.0785L39.4747 35.9105ZM41.5344 30.642L43.3665 29.8398L41.5344 30.642ZM26.741 41.4862L27.5432 43.3183L26.741 41.4862ZM37.5939 21.6425L35.7618 22.4447L37.5939 21.6425ZM38.6725 34.0785C39.6843 33.6354 40.1454 32.456 39.7024 31.4442L43.3665 29.8398C44.6956 32.8753 43.3124 36.4135 40.2769 37.7426L38.6725 34.0785ZM25.9388 39.6541L38.6725 34.0785L40.2769 37.7426L27.5432 43.3183L25.9388 39.6541ZM6.63019 35.2004C9.06909 40.7704 17.4258 43.3816 25.9388 39.6541L27.5432 43.3183C17.9435 47.5216 6.65193 45.2227 2.96605 36.8048L6.63019 35.2004ZM16.4533 17.991C7.94033 21.7185 4.19129 29.6304 6.63019 35.2004L2.96605 36.8048C-0.719828 28.3869 5.24918 18.5302 14.8489 14.3269L16.4533 17.991ZM35.7618 22.4447C33.3229 16.8747 24.9662 14.2635 16.4533 17.991L14.8489 14.3269C24.4485 10.1235 35.7401 12.4225 39.426 20.8403L35.7618 22.4447ZM39.7024 31.4442L35.7618 22.4447L39.426 20.8403L43.3665 29.8398L39.7024 31.4442Z" fill="#563D05"/>
<circle cx="50.9905" cy="22.8361" r="5" transform="rotate(48.3614 50.9905 22.8361)" fill="#302100"/>
<circle cx="51.8207" cy="20.7599" r="2" transform="rotate(48.3614 51.8207 20.7599)" fill="white"/>
<circle cx="58.9636" cy="31.8044" r="5" transform="rotate(48.3614 58.9636 31.8044)" fill="#302100"/>
<circle cx="59.7939" cy="29.7282" r="2" transform="rotate(48.3614 59.7939 29.7282)" fill="white"/>
</g>
<defs>
<clipPath id="clip0_673_4235">
<rect width="246" height="83" fill="white"/>
</clipPath>
</defs>
</svg>
