<svg width="12" height="12" viewBox="0 0 12 12" fill="none" xmlns="http://www.w3.org/2000/svg">
<g clip-path="url(#clip0_647_2905)">
<rect width="12" height="12" rx="6" fill="#3C3C43" fill-opacity="0.2"/>
<path d="M5.40918 7.30273H6.54199V7.01953C6.54199 6.53125 6.72266 6.27734 7.3623 5.90625C8.02637 5.51074 8.39746 4.98828 8.39746 4.24609V4.23633C8.39746 3.16699 7.50391 2.39551 6.16602 2.39551C4.71582 2.39551 3.91992 3.23535 3.88574 4.37793V4.3877L5.02344 4.38281L5.0332 4.37793C5.06738 3.77734 5.47266 3.3916 6.10254 3.3916C6.71777 3.3916 7.12793 3.76758 7.12793 4.28027V4.29004C7.12793 4.76855 6.92285 5.03223 6.31738 5.39844C5.64355 5.79395 5.36035 6.2334 5.4043 6.95605L5.40918 7.30273ZM6.0293 9.62207C6.52734 9.62207 6.83984 9.31934 6.83984 8.85547C6.83984 8.38672 6.52734 8.08398 6.0293 8.08398C5.54102 8.08398 5.21875 8.38672 5.21875 8.85547C5.21875 9.31934 5.54102 9.62207 6.0293 9.62207Z" fill="white"/>
</g>
<defs>
<clipPath id="clip0_647_2905">
<rect width="12" height="12" rx="6" fill="white"/>
</clipPath>
</defs>
</svg>
