<svg width="28" height="29" viewBox="0 0 28 29" fill="none" xmlns="http://www.w3.org/2000/svg">
<rect y="0.5" width="28" height="28" rx="6.06667" fill="url(#paint0_linear_644_3627)"/>
<path d="M22 14V16.7097C22 18.5156 20.5308 19.9847 18.725 19.9847H9.41419L9.72235 20.2929C10.1129 20.6834 10.1129 21.3166 9.72235 21.7071C9.5271 21.9023 9.27113 22 9.01525 22C8.75931 22 8.50344 21.9024 8.30816 21.7071L6.29291 19.6918C6.10534 19.5043 6 19.2499 6 18.9847C6 18.7195 6.10538 18.4652 6.29291 18.2776L8.30816 16.2624C8.69869 15.8719 9.33185 15.8719 9.72238 16.2624C10.1129 16.6529 10.1129 17.2861 9.72238 17.6767L9.41425 17.9847H18.725C19.4281 17.9847 20 17.4128 20 16.7097V14C20 13.4477 20.4478 13 21 13C21.5523 13 22 13.4477 22 14ZM7 15C7.55228 15 8 14.5523 8 14V11.2902C8 10.5872 8.57197 10.0152 9.27503 10.0152H18.5858L18.2777 10.3234C17.8871 10.7139 17.8871 11.3471 18.2777 11.7376C18.4729 11.9329 18.7288 12.0305 18.9848 12.0305C19.2407 12.0305 19.4966 11.9329 19.6919 11.7376L21.7071 9.72237C22.0976 9.33184 22.0976 8.69868 21.7071 8.30815L19.6919 6.2929C19.3014 5.90237 18.6682 5.90237 18.2777 6.2929C17.8871 6.68343 17.8871 7.31659 18.2777 7.70712L18.5858 8.01524H9.27503C7.46919 8.01524 6 9.4844 6 11.2902V14C6 14.5523 6.44772 15 7 15Z" fill="white"/>
<defs>
<linearGradient id="paint0_linear_644_3627" x1="14" y1="0.5" x2="14" y2="28.5" gradientUnits="userSpaceOnUse">
<stop stop-color="#303030"/>
<stop offset="1" stop-color="#121212"/>
</linearGradient>
</defs>
</svg>
