<svg width="28" height="28" viewBox="0 0 28 28" fill="none" xmlns="http://www.w3.org/2000/svg">
<rect width="28" height="28" rx="6.06667" fill="url(#paint0_linear_648_3283)"/>
<path d="M18.9056 8.08988L14.7806 6.54488C14.3531 6.38738 13.6556 6.38738 13.2281 6.54488L9.10309 8.08988C8.30809 8.38988 7.66309 9.31988 7.66309 10.1674V16.2424C7.66309 16.8499 8.06059 17.6524 8.54809 18.0124L12.6731 21.0949C13.4006 21.6424 14.5931 21.6424 15.3206 21.0949L19.4456 18.0124C19.9331 17.6449 20.3306 16.8499 20.3306 16.2424V10.1674C20.3381 9.31988 19.6931 8.38988 18.9056 8.08988ZM16.6106 12.2899L13.3856 15.5149C13.2731 15.6274 13.1306 15.6799 12.9881 15.6799C12.8456 15.6799 12.7031 15.6274 12.5906 15.5149L11.3906 14.2999C11.1731 14.0824 11.1731 13.7224 11.3906 13.5049C11.6081 13.2874 11.9681 13.2874 12.1856 13.5049L12.9956 14.3149L15.8231 11.4874C16.0406 11.2699 16.4006 11.2699 16.6181 11.4874C16.8356 11.7049 16.8356 12.0724 16.6106 12.2899Z" fill="white"/>
<defs>
<linearGradient id="paint0_linear_648_3283" x1="14" y1="0" x2="14" y2="28" gradientUnits="userSpaceOnUse">
<stop stop-color="#FFC960"/>
<stop offset="1" stop-color="#FFB800"/>
</linearGradient>
</defs>
</svg>
