<svg width="28" height="29" viewBox="0 0 28 29" fill="none" xmlns="http://www.w3.org/2000/svg">
<rect y="0.5" width="28" height="28" rx="6.06667" fill="url(#paint0_linear_644_3491)"/>
<path d="M22.987 14C22.987 12.8088 22.0979 11.8219 20.9486 11.6666C21.6977 10.0056 20.3689 8.19398 18.5617 8.34005C19.2751 6.81735 18.0842 4.97192 16.3954 5.00037C16.3955 5.00033 11.5792 5.00033 11.5792 5.00033C9.89152 4.97164 8.69867 6.81784 9.41295 8.34005H9.0305C7.33308 8.31808 6.15946 10.1658 6.89515 11.6879C4.3674 12.2163 4.36916 15.7847 6.89515 16.3121C6.15953 17.8347 7.33318 19.6817 9.03054 19.6599C9.0305 19.66 9.41299 19.66 9.41299 19.66C8.69962 21.1827 9.89053 23.0281 11.5793 22.9996C11.5793 22.9997 16.3955 22.9997 16.3955 22.9997C18.0832 23.0284 19.2761 21.1822 18.5618 19.66C20.3694 19.8062 21.6977 17.9937 20.9486 16.3335C22.0979 16.1781 22.987 15.1912 22.987 14ZM10.6124 7.37329C10.6124 6.8402 11.0461 6.40653 11.5792 6.40653H16.3954C16.9285 6.40653 17.3622 6.8402 17.3622 7.37329C17.3622 7.90638 16.9285 8.34005 16.3954 8.34005H11.5792C11.0461 8.34005 10.6124 7.90638 10.6124 7.37329ZM17.3622 20.6267C17.3622 21.1598 16.9285 21.5935 16.3954 21.5935H11.5792C11.0461 21.5935 10.6124 21.1598 10.6124 20.6267C10.6124 20.0936 11.0461 19.66 11.5792 19.66H16.3954C16.9285 19.66 17.3622 20.0937 17.3622 20.6267ZM20.6316 14.9492H17.9598C17.5715 14.9492 17.2567 15.264 17.2567 15.6523C17.2567 16.0406 17.5715 16.3554 17.9598 16.3554H18.8036C19.3269 16.3554 19.7527 16.7812 19.7527 17.3046C19.7527 17.828 19.3269 18.2538 18.8036 18.2538H9.03047C7.77491 18.2064 7.77129 16.404 9.03047 16.3554H9.97965C10.9136 16.3196 10.909 14.9829 9.97965 14.9492H7.34303C6.08933 14.9032 6.0824 13.0996 7.34303 13.0508H10.0148C10.4031 13.0508 10.7179 12.736 10.7179 12.3477C10.7179 11.9594 10.4031 11.6446 10.0148 11.6446H9.03047C8.50708 11.6446 8.08128 11.2188 8.08128 10.6954C8.08128 10.1721 8.50708 9.74625 9.03047 9.74625H18.8036C20.0591 9.79357 20.0627 11.596 18.8036 11.6446H17.9598C17.5715 11.6446 17.2567 11.9594 17.2567 12.3477C17.2567 12.736 17.5715 13.0508 17.9598 13.0508H20.6316C21.8853 13.0968 21.8923 14.9004 20.6316 14.9492ZM13.9873 16.3554C12.6886 16.3554 11.6319 15.2988 11.6319 14C11.7503 10.8795 16.2248 10.8804 16.3427 14C16.3427 15.2988 15.2861 16.3554 13.9873 16.3554ZM13.9873 13.0508C13.4639 13.0508 13.0381 13.4766 13.0381 14C13.0859 15.2575 14.889 15.2571 14.9365 14C14.9365 13.4767 14.5107 13.0508 13.9873 13.0508Z" fill="white"/>
<defs>
<linearGradient id="paint0_linear_644_3491" x1="14" y1="0.5" x2="14" y2="28.5" gradientUnits="userSpaceOnUse">
<stop stop-color="#303030"/>
<stop offset="1" stop-color="#121212"/>
</linearGradient>
</defs>
</svg>
