<svg width="28" height="29" viewBox="0 0 28 29" fill="none" xmlns="http://www.w3.org/2000/svg">
<rect y="0.5" width="28" height="28" rx="6.06667" fill="url(#paint0_linear_738_3429)"/>
<path d="M17.25 11.2501C17.4158 11.2335 17.5681 11.1518 17.6736 11.0228C17.7791 10.8939 17.8291 10.7284 17.8125 10.5626C17.7959 10.3968 17.7142 10.2445 17.5852 10.139C17.4563 10.0335 17.2908 9.98352 17.125 10.0001H16.8875L18.3062 7.15635C18.3718 7.02486 18.389 6.87448 18.3547 6.7316C18.3204 6.58873 18.2368 6.46251 18.1187 6.3751C18.0002 6.28668 17.8541 6.24319 17.7065 6.25234C17.5588 6.2615 17.4192 6.32271 17.3125 6.4251C16.9035 6.74404 16.3928 6.90392 15.875 6.8751C15.3601 6.9036 14.8522 6.74611 14.4437 6.43135C14.3266 6.31494 14.1682 6.2496 14.0031 6.2496C13.838 6.2496 13.6796 6.31494 13.5625 6.43135C13.1527 6.74806 12.642 6.90569 12.125 6.8751C11.6101 6.9036 11.1022 6.74611 10.6937 6.43135C10.5887 6.3255 10.4493 6.26069 10.3007 6.24863C10.152 6.23657 10.004 6.27805 9.88325 6.36558C9.76252 6.45311 9.67707 6.58092 9.64232 6.72593C9.60756 6.87094 9.62581 7.02361 9.69375 7.15635L11.1125 10.0001H10.875C10.7092 9.98352 10.5437 10.0335 10.4148 10.139C10.2858 10.2445 10.2041 10.3968 10.1875 10.5626C10.1709 10.7284 10.2209 10.8939 10.3264 11.0228C10.4319 11.1518 10.5842 11.2335 10.75 11.2501C9.4125 12.8251 7.125 16.0563 7.125 19.3751C7.125 22.2313 9.3 23.7501 10.875 23.7501H17.125C18.7 23.7501 20.875 22.2313 20.875 19.3751C20.875 16.0563 18.5875 12.8251 17.25 11.2501ZM11.5563 8.1251C11.7456 8.13855 11.9357 8.13855 12.125 8.1251C12.7819 8.13605 13.4296 7.96981 14 7.64385C14.5704 7.96981 15.2181 8.13605 15.875 8.1251C16.0652 8.1261 16.2553 8.11357 16.4438 8.0876L15.4875 10.0001H12.5125L11.5563 8.1251ZM17.125 22.5001H10.875C10.0062 22.5001 8.375 21.5813 8.375 19.3751C8.375 15.7876 11.6063 12.0938 12.3938 11.2501H15.6062C16.3938 12.0938 19.625 15.7876 19.625 19.3751C19.625 21.5813 17.9937 22.5001 17.125 22.5001Z" fill="white"/>
<path d="M14.625 16.25H13.375C13.2092 16.25 13.0503 16.1842 12.9331 16.0669C12.8158 15.9497 12.75 15.7908 12.75 15.625C12.75 15.4592 12.8158 15.3003 12.9331 15.1831C13.0503 15.0658 13.2092 15 13.375 15H14.625C14.7351 14.9996 14.8434 15.0282 14.9389 15.0831C15.0344 15.138 15.1137 15.2171 15.1688 15.3125C15.2048 15.3922 15.2571 15.4634 15.3224 15.5216C15.3877 15.5798 15.4644 15.6237 15.5477 15.6503C15.631 15.677 15.719 15.6859 15.8059 15.6764C15.8928 15.667 15.9768 15.6394 16.0524 15.5954C16.128 15.5515 16.1936 15.4921 16.2448 15.4213C16.296 15.3504 16.3318 15.2696 16.3499 15.184C16.3679 15.0984 16.3678 15.01 16.3495 14.9245C16.3312 14.839 16.2952 14.7582 16.2438 14.6875C16.0796 14.4032 15.8437 14.167 15.5596 14.0025C15.2756 13.8379 14.9533 13.7509 14.625 13.75V13.125C14.625 12.9592 14.5592 12.8003 14.4419 12.6831C14.3247 12.5658 14.1658 12.5 14 12.5C13.8342 12.5 13.6753 12.5658 13.5581 12.6831C13.4408 12.8003 13.375 12.9592 13.375 13.125V13.75C12.8777 13.75 12.4008 13.9475 12.0492 14.2992C11.6975 14.6508 11.5 15.1277 11.5 15.625C11.5 16.1223 11.6975 16.5992 12.0492 16.9508C12.4008 17.3025 12.8777 17.5 13.375 17.5H14.625C14.7908 17.5 14.9497 17.5658 15.0669 17.6831C15.1842 17.8003 15.25 17.9592 15.25 18.125C15.25 18.2908 15.1842 18.4497 15.0669 18.5669C14.9497 18.6842 14.7908 18.75 14.625 18.75H13.375C13.2649 18.7504 13.1566 18.7218 13.0611 18.6669C12.9656 18.612 12.8863 18.5329 12.8313 18.4375C12.7952 18.3578 12.7429 18.2866 12.6776 18.2284C12.6123 18.1702 12.5356 18.1263 12.4523 18.0997C12.369 18.073 12.281 18.0641 12.1941 18.0736C12.1072 18.083 12.0232 18.1106 11.9476 18.1546C11.872 18.1985 11.8064 18.2579 11.7552 18.3287C11.704 18.3996 11.6682 18.4804 11.6501 18.566C11.6321 18.6516 11.6322 18.74 11.6505 18.8255C11.6688 18.911 11.7048 18.9918 11.7562 19.0625C11.9204 19.3468 12.1563 19.583 12.4404 19.7475C12.7244 19.9121 13.0467 19.9991 13.375 20V20.625C13.375 20.7908 13.4408 20.9497 13.5581 21.0669C13.6753 21.1842 13.8342 21.25 14 21.25C14.1658 21.25 14.3247 21.1842 14.4419 21.0669C14.5592 20.9497 14.625 20.7908 14.625 20.625V20C15.1223 20 15.5992 19.8025 15.9508 19.4508C16.3025 19.0992 16.5 18.6223 16.5 18.125C16.5 17.6277 16.3025 17.1508 15.9508 16.7992C15.5992 16.4475 15.1223 16.25 14.625 16.25Z" fill="white"/>
<defs>
<linearGradient id="paint0_linear_738_3429" x1="14" y1="0.5" x2="14" y2="28.5" gradientUnits="userSpaceOnUse">
<stop stop-color="#303030"/>
<stop offset="1" stop-color="#121212"/>
</linearGradient>
</defs>
</svg>
