<svg width="28" height="29" viewBox="0 0 28 29" fill="none" xmlns="http://www.w3.org/2000/svg">
<rect y="0.5" width="28" height="28" rx="6.06667" fill="url(#paint0_linear_753_3671)"/>
<g clip-path="url(#clip0_753_3671)">
<path d="M10.6667 22H17.3334C18.2171 21.9989 19.0643 21.6474 19.6892 21.0225C20.3141 20.3976 20.6656 19.5504 20.6667 18.6667V15.3333C20.6659 14.6855 20.4762 14.0519 20.121 13.5101C19.7658 12.9683 19.2605 12.5418 18.6667 12.2827V10.6667C18.6667 9.42899 18.175 8.242 17.2999 7.36684C16.4247 6.49167 15.2377 6 14 6C12.7624 6 11.5754 6.49167 10.7002 7.36684C9.82504 8.242 9.33337 9.42899 9.33337 10.6667V12.2827C8.73961 12.5418 8.23424 12.9683 7.87904 13.5101C7.52384 14.0519 7.33423 14.6855 7.33337 15.3333V18.6667C7.33443 19.5504 7.68596 20.3976 8.31085 21.0225C8.93575 21.6474 9.78298 21.9989 10.6667 22V22ZM10.6667 10.6667C10.6667 9.78261 11.0179 8.93477 11.643 8.30964C12.2681 7.68452 13.116 7.33333 14 7.33333C14.8841 7.33333 15.7319 7.68452 16.3571 8.30964C16.9822 8.93477 17.3334 9.78261 17.3334 10.6667V12H10.6667V10.6667ZM8.66671 15.3333C8.66671 14.8029 8.87742 14.2942 9.25249 13.9191C9.62757 13.544 10.1363 13.3333 10.6667 13.3333H17.3334C17.8638 13.3333 18.3725 13.544 18.7476 13.9191C19.1227 14.2942 19.3334 14.8029 19.3334 15.3333V18.6667C19.3334 19.1971 19.1227 19.7058 18.7476 20.0809C18.3725 20.456 17.8638 20.6667 17.3334 20.6667H10.6667C10.1363 20.6667 9.62757 20.456 9.25249 20.0809C8.87742 19.7058 8.66671 19.1971 8.66671 18.6667V15.3333Z" fill="white"/>
<path d="M13.3333 18.5441V18.6667C13.3333 18.8435 13.4036 19.0131 13.5286 19.1381C13.6536 19.2632 13.8232 19.3334 14 19.3334C14.1768 19.3334 14.3464 19.2632 14.4714 19.1381C14.5964 19.0131 14.6667 18.8435 14.6667 18.6667V18.5441C15.1115 18.3868 15.4864 18.0774 15.7251 17.6704C15.9638 17.2635 16.051 16.7852 15.9712 16.3202C15.8914 15.8552 15.6498 15.4334 15.2891 15.1293C14.9284 14.8252 14.4718 14.6584 14 14.6584C13.5282 14.6584 13.0716 14.8252 12.7109 15.1293C12.3502 15.4334 12.1086 15.8552 12.0288 16.3202C11.949 16.7852 12.0362 17.2635 12.2749 17.6704C12.5136 18.0774 12.8885 18.3868 13.3333 18.5441V18.5441ZM14 16.0001C14.1319 16.0001 14.2608 16.0392 14.3704 16.1124C14.48 16.1857 14.5655 16.2898 14.6159 16.4116C14.6664 16.5334 14.6796 16.6675 14.6539 16.7968C14.6281 16.9261 14.5646 17.0449 14.4714 17.1381C14.3782 17.2314 14.2594 17.2949 14.1301 17.3206C14.0007 17.3463 13.8667 17.3331 13.7449 17.2827C13.6231 17.2322 13.5189 17.1467 13.4457 17.0371C13.3724 16.9275 13.3333 16.7986 13.3333 16.6667C13.3333 16.4899 13.4036 16.3204 13.5286 16.1953C13.6536 16.0703 13.8232 16.0001 14 16.0001V16.0001Z" fill="white"/>
</g>
<defs>
<linearGradient id="paint0_linear_753_3671" x1="14" y1="0.5" x2="14" y2="28.5" gradientUnits="userSpaceOnUse">
<stop stop-color="#303030"/>
<stop offset="1" stop-color="#121212"/>
</linearGradient>
<clipPath id="clip0_753_3671">
<rect width="16" height="16" fill="white" transform="translate(6 6)"/>
</clipPath>
</defs>
</svg>
