<svg width="28" height="29" viewBox="0 0 28 29" fill="none" xmlns="http://www.w3.org/2000/svg">
<rect y="0.5" width="28" height="28" rx="6.06667" fill="url(#paint0_linear_738_3509)"/>
<path d="M21.2393 17.2732C21.8137 16.407 21.974 15.5779 21.7135 14.8101C21.2568 13.464 19.6553 12.8987 19.6148 12.8852L17.1112 11.8749C17.3857 10.1436 16.1543 9.14737 16.1543 9.14737L16.6117 8.568C17.1449 8.55506 17.5741 8.12081 17.5741 7.58362C17.5741 7.038 17.1325 6.59644 16.5875 6.59644C16.0413 6.59644 15.6008 7.038 15.6008 7.58362C15.6008 7.71187 15.6273 7.83225 15.6712 7.94531L15.211 8.5275C13.8667 7.97006 12.7872 8.51962 12.7872 8.51962L12.3136 7.92056C12.3518 7.81481 12.376 7.70231 12.376 7.58362C12.376 7.038 11.9345 6.59644 11.3894 6.59644C10.8432 6.59644 10.4017 7.038 10.4017 7.58362C10.4017 8.12925 10.8432 8.57081 11.3894 8.57081C11.3905 8.57081 11.3917 8.57025 11.3933 8.57025L11.8383 9.13275C11.8383 9.13275 10.5682 10.3027 10.8657 11.8845L8.41266 12.8756C8.34459 12.8987 6.74259 13.4646 6.28641 14.8101C6.02597 15.5779 6.18572 16.407 6.78028 17.3019C6.78028 17.3019 7.85072 18.9579 9.97641 17.6743C10.5383 19.1469 11.8473 20.2348 13.4257 20.4469V21.4031C13.4257 21.7142 13.6771 21.9656 13.9882 21.9656C14.2992 21.9656 14.5507 21.7142 14.5507 21.4031V20.4469C16.1335 20.2342 17.4464 19.1402 18.0055 17.6614C18.005 17.6614 19.5547 19.0389 21.2393 17.2732V17.2732ZM10.8944 15.3096H17.0819C17.0819 15.3096 17.2675 16.2202 17.0279 17.0556H10.9484C10.6627 16.2433 10.8944 15.3096 10.8944 15.3096ZM11.3866 14.1846C11.9632 13.3397 12.9138 12.7856 13.9882 12.7856C15.0631 12.7856 16.0137 13.3397 16.5903 14.1846H11.3866ZM16.0182 11.4362C16.0182 11.6736 15.9732 11.9036 15.8945 12.1219C15.319 11.8288 14.6727 11.6606 13.9876 11.6606C13.3025 11.6606 12.6567 11.8299 12.0807 12.1224C12.002 11.9036 11.957 11.6736 11.957 11.4362C11.957 10.3168 12.8677 9.40612 13.987 9.40612C15.1064 9.40612 16.0182 10.3168 16.0182 11.4362V11.4362ZM8.80641 13.9292L10.7875 13.1299C9.47353 14.5097 9.69684 16.4351 9.69684 16.4351C8.46384 17.6518 7.69716 16.65 7.69716 16.65V16.6506C7.69716 16.6506 6.30778 14.913 8.80641 13.9292V13.9292ZM11.5447 18.1806H16.4317C13.9178 20.8159 11.5447 18.1806 11.5447 18.1806V18.1806ZM20.3258 16.6185C19.4843 17.6799 18.2812 16.4137 18.2812 16.4137C18.2812 16.4137 18.4994 14.5727 17.1753 13.1147L19.2211 13.9393C21.7 15.003 20.3258 16.6185 20.3258 16.6185Z" fill="white"/>
<defs>
<linearGradient id="paint0_linear_738_3509" x1="14" y1="0.5" x2="14" y2="28.5" gradientUnits="userSpaceOnUse">
<stop stop-color="#303030"/>
<stop offset="1" stop-color="#121212"/>
</linearGradient>
</defs>
</svg>
