<svg width="28" height="29" viewBox="0 0 28 29" fill="none" xmlns="http://www.w3.org/2000/svg">
<rect y="0.5" width="28" height="28" rx="6.06667" fill="url(#paint0_linear_644_3657)"/>
<path fill-rule="evenodd" clip-rule="evenodd" d="M11.1562 8.3125C10.5522 8.3125 10.0625 8.80218 10.0625 9.40625C10.0625 10.0103 10.5522 10.5 11.1562 10.5H13.1764C12.9726 9.78464 12.702 9.27406 12.408 8.93098C12.0317 8.49199 11.6078 8.3125 11.1562 8.3125ZM8.75 9.40625C8.75 9.8001 8.84462 10.1718 9.01237 10.5H8.53125C7.68556 10.5 7 11.1856 7 12.0312V13.7812C7 14.3921 7.35767 14.9194 7.875 15.1651V19.4688C7.875 20.3144 8.56056 21 9.40625 21H18.5938C19.4394 21 20.125 20.3144 20.125 19.4688V15.1651C20.6423 14.9194 21 14.3921 21 13.7812V12.0312C21 11.1856 20.3144 10.5 19.4688 10.5H18.9876C19.1554 10.1718 19.25 9.8001 19.25 9.40625C19.25 8.07732 18.1727 7 16.8438 7C15.9828 7 15.2036 7.36738 14.5955 8.07683C14.3717 8.33796 14.173 8.64258 14 8.98891C13.827 8.64258 13.6283 8.33796 13.4045 8.07683C12.7964 7.36738 12.0172 7 11.1562 7C9.82732 7 8.75 8.07732 8.75 9.40625ZM14.8236 10.5H16.8438C17.4479 10.5 17.9375 10.0103 17.9375 9.40625C17.9375 8.80218 17.4479 8.3125 16.8438 8.3125C16.3922 8.3125 15.9683 8.49199 15.592 8.93098C15.298 9.27406 15.0274 9.78464 14.8236 10.5ZM8.53125 11.8125C8.41044 11.8125 8.3125 11.9104 8.3125 12.0312V13.7812C8.3125 13.9021 8.41044 14 8.53125 14H13.3438V11.8125H8.53125ZM14.6562 11.8125V14H19.4688C19.5896 14 19.6875 13.9021 19.6875 13.7812V12.0312C19.6875 11.9104 19.5896 11.8125 19.4688 11.8125H14.6562ZM14.6562 15.3125H18.8125V19.4688C18.8125 19.5896 18.7146 19.6875 18.5938 19.6875H14.6562V15.3125ZM13.3438 15.3125V19.6875H9.40625C9.28544 19.6875 9.1875 19.5896 9.1875 19.4688V15.3125H13.3438Z" fill="white"/>
<defs>
<linearGradient id="paint0_linear_644_3657" x1="14" y1="0.5" x2="14" y2="28.5" gradientUnits="userSpaceOnUse">
<stop stop-color="#303030"/>
<stop offset="1" stop-color="#121212"/>
</linearGradient>
</defs>
</svg>
